<?xml version="1.0" encoding="UTF-8"?>
<svg version="1.1" xmlns="http://www.w3.org/2000/svg" width="500" height="500">
<path d="M0 0 C165 0 330 0 500 0 C500 165 500 330 500 500 C335 500 170 500 0 500 C0 335 0 170 0 0 Z " fill="none" transform="translate(0,0)"/>
<path d="M0 0 C0.82886719 0.1129541 1.65773438 0.2259082 2.51171875 0.34228516 C26.33715398 3.70794327 49.51336996 11.22617087 71 22 C71.74137207 22.36593262 72.48274414 22.73186523 73.24658203 23.10888672 C93.54155268 33.19182344 111.67535454 46.29905362 128 62 C128.68255859 62.65000977 129.36511719 63.30001953 130.06835938 63.96972656 C140.81345318 74.24866599 150.48207102 84.80088411 159 97 C159.70431152 98.00184326 159.70431152 98.00184326 160.42285156 99.02392578 C173.08402493 117.24592896 182.82221615 137.03274701 190 158 C190.24830566 158.71736328 190.49661133 159.43472656 190.75244141 160.17382812 C206.79277995 207.0832035 207.34156016 262.28433529 190 309 C189.46632813 310.4535791 189.46632813 310.4535791 188.921875 311.93652344 C181.46483011 331.97733158 172.43121952 350.58103964 160 368 C159.27167969 369.02351563 158.54335938 370.04703125 157.79296875 371.1015625 C144.65412427 389.0461465 129.51301768 405.47458956 111.64355469 418.77099609 C110.05304763 419.96033247 108.48311278 421.17702768 106.9140625 422.39453125 C87.95432283 437 87.95432283 437 82 437 C80.02 433.04 78.04 429.08 76 425 C76.99257813 424.40574219 77.98515625 423.81148438 79.0078125 423.19921875 C88.55942105 417.40383414 97.41428462 411.14231277 106 404 C106.60118652 403.50177734 107.20237305 403.00355469 107.82177734 402.49023438 C119.00812542 393.17666025 128.96115049 383.45532704 138 372 C138.79277344 371.02417969 139.58554687 370.04835938 140.40234375 369.04296875 C171.39018219 330.12459346 186.25495071 281.81664429 186.4375 232.5 C186.44703201 231.18337372 186.44703201 231.18337372 186.45675659 229.84014893 C186.71598342 172.31603138 161.66485998 117.31546362 121.62841797 76.62792969 C90.49812368 45.50696982 47.47569049 22.44418101 3.75 16.375 C2.91726563 16.25382812 2.08453125 16.13265625 1.2265625 16.0078125 C-1.18107128 15.6606302 -3.58889454 15.32224909 -6 15 C-7.23862793 14.82509033 -8.47725586 14.65018066 -9.75341797 14.4699707 C-14.06997484 13.93631109 -18.33409336 13.83843367 -22.6796875 13.83203125 C-23.49132355 13.82870285 -24.30295959 13.82537445 -25.13919067 13.82194519 C-26.85190267 13.81690979 -28.56462436 13.81453581 -30.27734375 13.81469727 C-32.83350913 13.8125351 -35.38922461 13.79441061 -37.9453125 13.77539062 C-53.3717722 13.72048456 -68.37555979 14.91287287 -83.375 18.6875 C-84.42953369 18.94805176 -85.48406738 19.20860352 -86.57055664 19.47705078 C-125.38764429 29.35180414 -158.79484696 48.74185716 -188 76 C-188.81210938 76.75796875 -189.62421875 77.5159375 -190.4609375 78.296875 C-197.39374461 84.98911152 -203.22953317 92.31516029 -209 100 C-209.62624268 100.81911865 -209.62624268 100.81911865 -210.26513672 101.65478516 C-229.0433512 126.28769086 -241.70215175 154.98871364 -248.75 185.0625 C-248.94883789 185.89966553 -249.14767578 186.73683105 -249.35253906 187.59936523 C-252.57122297 202.07654171 -253.35336897 216.53589638 -253.25 231.3125 C-253.24656586 232.12082275 -253.24313171 232.92914551 -253.23959351 233.76196289 C-252.94247935 293.53867595 -229.48179804 348.41441628 -187.9375 391.3125 C-183.2387759 395.8750292 -178.1130947 399.91672578 -173 404 C-172.20851563 404.65871094 -171.41703125 405.31742187 -170.6015625 405.99609375 C-156.00426765 418.0473488 -139.85164155 426.52317426 -123 435 C-123 439.14676132 -123.4776945 440.31208065 -125.5 443.75 C-125.9640625 444.54921875 -126.428125 445.3484375 -126.90625 446.171875 C-127.44765625 447.07679688 -127.44765625 447.07679688 -128 448 C-132.51913993 447.36922139 -136.28623359 445.6064 -140.3125 443.5625 C-141.35603638 443.0355957 -141.35603638 443.0355957 -142.4206543 442.49804688 C-154.26567263 436.39788239 -165.42643153 429.09538836 -176 421 C-177.2065625 420.08347656 -177.2065625 420.08347656 -178.4375 419.1484375 C-193.03538473 407.77893112 -206.67524925 394.61991233 -218 380 C-218.41862305 379.46310547 -218.83724609 378.92621094 -219.26855469 378.37304688 C-248.51556627 340.60559382 -267.98321449 293.27393484 -268.203125 245.12890625 C-268.20882507 244.12649399 -268.21452515 243.12408173 -268.22039795 242.09129333 C-268.22977855 239.98120149 -268.23635401 237.87109546 -268.24023438 235.76098633 C-268.24988107 232.6014513 -268.28094809 229.4425846 -268.3125 226.28320312 C-268.38063828 213.24850317 -267.44221833 200.80654213 -265 188 C-264.80116211 186.94369385 -264.60232422 185.8873877 -264.39746094 184.79907227 C-263.89882691 182.35001902 -263.34839709 179.92640201 -262.75 177.5 C-262.54020508 176.64092041 -262.33041016 175.78184082 -262.11425781 174.89672852 C-249.63014989 125.56828908 -220.03305092 80.38021639 -180 49 C-179.02675781 48.20980469 -178.05351562 47.41960938 -177.05078125 46.60546875 C-127.53808397 7.1568329 -62.3613507 -8.95749547 0 0 Z " fill="#162923" transform="translate(289,2)"/>
<path d="M0 0 C3.23394531 1.71326055 5.04591751 3.12942313 7.08984375 6.1953125 C7.48942862 9.61548807 7.65337855 13.06824291 6.08984375 16.1953125 C2.33546369 15.15242915 1.27136567 14.49784904 -0.78515625 11.0703125 C-2.65454122 7.89289971 -2.65454122 7.89289971 -6.09765625 7.4453125 C-14.69003166 9.13561586 -20.91273028 15.27827441 -25.91015625 22.1953125 C-33.17719684 33.02456433 -39.19154022 44.34367311 -41.91015625 57.1953125 C-30.04849548 50.60550096 -22.76182477 41.03896607 -15.453125 29.9296875 C-9.10310843 20.43390294 -9.10310843 20.43390294 -4.78515625 19.5703125 C-1.91015625 20.1953125 -1.91015625 20.1953125 -0.30078125 21.9375 C4.61348734 29.9162844 3.65316721 42.03659674 4.08984375 51.1953125 C9.55944242 47.28548531 14.96105708 43.34548975 20.15234375 39.0703125 C32.34972517 29.1953125 32.34972517 29.1953125 37.08984375 29.1953125 C37.35796875 28.45667969 37.62609375 27.71804687 37.90234375 26.95703125 C42.8523076 15.44510874 54.11930491 5.25762071 65.328125 0.19140625 C70.28853465 -1.59770897 73.47672327 -1.42511845 78.33984375 0.4453125 C82.67203553 3.20216182 82.67203553 3.20216182 84.08984375 6.1953125 C84.32478687 9.21302634 84.26405629 12.17562844 84.08984375 15.1953125 C82.76984375 15.1953125 81.44984375 15.1953125 80.08984375 15.1953125 C78.03913445 12.96882812 76.44342972 10.90248445 75.08984375 8.1953125 C68.0526268 7.62084581 64.1316346 9.64306846 58.9296875 14.0078125 C48.84838154 23.41472578 38.810679 38.53878889 37.21484375 52.5078125 C37.17359375 53.7246875 37.13234375 54.9415625 37.08984375 56.1953125 C47.04051685 50.81457816 53.90106031 42.16186377 59.98828125 32.828125 C60.46604004 32.09964355 60.94379883 31.37116211 61.43603516 30.62060547 C62.35362367 29.19874222 63.25025048 27.76307184 64.12255859 26.31298828 C66.55467406 22.50934381 67.33775718 21.38256671 71.91796875 20.2421875 C72.9646875 20.22671875 74.01140625 20.21125 75.08984375 20.1953125 C80.71579141 26.58843484 80.35779662 34.08896421 80.21484375 42.1328125 C80.20582031 43.10283203 80.19679688 44.07285156 80.1875 45.07226562 C80.16410482 47.44687657 80.13132551 49.82096026 80.08984375 52.1953125 C85.64298594 48.24011531 91.10067142 44.21759453 96.41577148 39.94946289 C109.18622497 29.71611673 109.18622497 29.71611673 114.08984375 28.1953125 C116.8359375 28.5859375 116.8359375 28.5859375 119.08984375 29.1953125 C119.4453125 31.40234375 119.4453125 31.40234375 119.08984375 34.1953125 C117.21249572 36.0234992 115.52831753 37.40365196 113.40234375 38.8828125 C112.20285523 39.76004791 111.00364414 40.63766278 109.8046875 41.515625 C108.87825439 42.18126465 108.87825439 42.18126465 107.93310547 42.86035156 C103.96993055 45.73063507 100.11861309 48.7492937 96.25390625 51.75 C94.13749666 53.38564494 92.01527683 54.99196149 89.86328125 56.578125 C88.86554688 57.33867187 87.8678125 58.09921875 86.83984375 58.8828125 C85.9478125 59.54667969 85.05578125 60.21054688 84.13671875 60.89453125 C80.36698255 65.1318874 80.95737743 71.34087977 80.6953125 76.81640625 C79.56644253 98.27321591 77.21021993 118.72160822 71.21484375 139.4453125 C70.89950684 140.54004883 70.58416992 141.63478516 70.25927734 142.76269531 C65.11351864 159.65729155 56.2681173 175.84239262 40.77734375 185.1953125 C34.23615479 186.96919425 27.82253935 187.46406403 21.58984375 184.5703125 C17.62974626 180.80821989 14.3607377 176.71529213 13.92871094 171.1015625 C13.55908824 149.92132254 13.55908824 149.92132254 17.08984375 141.1953125 C17.55390625 140.01453125 18.01796875 138.83375 18.49609375 137.6171875 C27.59818912 115.32622823 40.81782551 95.79672533 56.68359375 77.80761719 C58.93334497 75.22821492 61.1058198 72.59099833 63.27734375 69.9453125 C63.99277344 69.07390625 64.70820313 68.2025 65.4453125 67.3046875 C68.13806952 63.85079488 68.20940932 61.86929484 68.1875 57.53125 C68.18427734 56.40976563 68.18105469 55.28828125 68.17773438 54.1328125 C68.16935547 52.9571875 68.16097656 51.7815625 68.15234375 50.5703125 C68.14557617 48.79527344 68.14557617 48.79527344 68.13867188 46.984375 C68.12685842 44.05463743 68.11038633 41.12499978 68.08984375 38.1953125 C66.99456284 39.445112 65.89956748 40.69516175 64.8046875 41.9453125 C64.19488037 42.64140625 63.58507324 43.3375 62.95678711 44.0546875 C61.17881803 46.09329517 59.41448729 48.14302872 57.65234375 50.1953125 C45.03989553 64.53278167 45.03989553 64.53278167 38.046875 65.46875 C34.99291339 65.61338206 32.7287475 65.62811827 30.15234375 63.8828125 C27.92442285 60.34434989 27.98253622 57.25786189 28.02734375 53.1953125 C28.03636719 52.1434375 28.04539062 51.0915625 28.0546875 50.0078125 C28.06628906 49.0796875 28.07789063 48.1515625 28.08984375 47.1953125 C28.08984375 46.2053125 28.08984375 45.2153125 28.08984375 44.1953125 C27.63657715 44.56817383 27.18331055 44.94103516 26.71630859 45.32519531 C24.63480971 47.03475162 22.54986287 48.74005168 20.46484375 50.4453125 C19.75199219 51.03183594 19.03914063 51.61835938 18.3046875 52.22265625 C15.16167978 54.78896531 12.20623968 57.12734798 8.69140625 59.1796875 C5.15778984 61.91744435 4.81895629 63.81621842 4.08984375 68.1953125 C3.85707306 71.50770552 3.82035914 74.81331188 3.77734375 78.1328125 C3.49195586 88.10740698 2.32021549 97.85254565 0.77734375 107.6953125 C0.67642426 108.35651093 0.57550476 109.01770935 0.4715271 109.69894409 C-3.3345448 134.39449372 -9.89308293 164.71323458 -30.37890625 181.1796875 C-37.47391388 186.0171927 -43.33947608 187.01264889 -51.91015625 186.1953125 C-57.20461366 183.64262768 -60.75932936 180.00019524 -63 174.5390625 C-68.6133042 153.91679471 -58.14478477 132.95356429 -48.21484375 115.44458008 C-40.2286532 101.78737804 -30.95261525 88.58343743 -20.0078125 77.12890625 C-19.514021 76.60828613 -19.02022949 76.08766602 -18.51147461 75.55126953 C-17.11756501 74.09396897 -15.7057845 72.65382275 -14.29296875 71.21484375 C-8.70631796 64.1353666 -8.41527139 56.98956938 -8.22265625 48.1953125 C-8.18849609 47.13441406 -8.15433594 46.07351562 -8.11914062 44.98046875 C-8.037318 42.38552249 -7.9679563 39.79088614 -7.91015625 37.1953125 C-11.08599716 40.27405036 -13.99610532 43.4243541 -16.80371094 46.85205078 C-30.45890293 63.52042948 -30.45890293 63.52042948 -39.91015625 66.1953125 C-43.35894915 66.12898956 -45.09786291 66.01146472 -47.5546875 63.54296875 C-50.78125645 57.95458852 -49.50058002 50.16971151 -48.2890625 44.06640625 C-43.56804388 28.30869522 -31.56478324 10.95137977 -17.140625 2.58984375 C-11.49766822 -0.16601887 -6.17839689 -2.60276024 0 0 Z " fill="#182B25" transform="translate(236.91015625,138.8046875)"/>
<path d="M0 0 C-0.54976421 7.54909338 -1.12569478 15.09577074 -1.73095703 22.640625 C-1.89423796 24.67941412 -2.05482314 26.71842478 -2.21044922 28.7578125 C-4.0491977 52.33870906 -8.9787536 80.47806789 -26.99609375 97.3671875 C-31.0882849 100.70156547 -34.8096486 102.30815784 -40.1875 102 C-44.55330028 100.85487206 -45.69087018 99.7869729 -48 96 C-52.43130639 87.13738723 -47.71490343 74.69330244 -44.828125 65.99609375 C-40.2381014 53.02655082 -15.47372128 0 0 0 Z " fill="#FAF9F5" transform="translate(306,216)"/>
<path d="M0 0 C0.31056345 10.40675103 -0.41951729 20.34148875 -1.91650391 30.63354492 C-2.24896929 32.93037938 -2.56110189 35.22933356 -2.87109375 37.52929688 C-4.65655729 50.39189572 -6.83982435 63.5869801 -12.375 75.4375 C-12.67607666 76.0987085 -12.97715332 76.75991699 -13.28735352 77.44116211 C-17.75479692 87.01929492 -23.1435818 95.24529479 -32.625 100.4375 C-39.31127273 102.02109091 -39.31127273 102.02109091 -42.6796875 99.984375 C-45.40880673 97.8167492 -46.88736537 96.33790388 -48 93 C-49.02749386 81.68288903 -46.99829888 72.50989051 -43 62 C-42.56558594 60.82566406 -42.13117188 59.65132813 -41.68359375 58.44140625 C-37.04183064 46.79071308 -13.59748664 0 0 0 Z " fill="#FAFAF6" transform="translate(228,217)"/>
<path d="M0 0 C7.18182988 -0.39015977 12.81088554 -0.2721424 18.6953125 4.32421875 C20.43386914 6.55727504 20.26585468 7.72517169 19.9375 10.5 C19.47505133 13.73188559 19.30261988 14.69738012 16.9375 17.0625 C16.298125 17.371875 15.65875 17.68125 15 18 C15.309375 18.928125 15.61875 19.85625 15.9375 20.8125 C16.625 22.875 17.3125 24.9375 18 27 C16.35 27 14.7 27 13 27 C12.01 24.03 11.02 21.06 10 18 C7.36 18 4.72 18 2 18 C2 20.31 2 22.62 2 25 C0.68 25 -0.64 25 -2 25 C-2.31274919 16.48627215 -1.37292913 8.3969326 0 0 Z " fill="#20332D" transform="translate(234,445)"/>
<path d="M0 0 C2.12817383 1.67407227 2.12817383 1.67407227 4.20703125 3.81640625 C4.95791016 4.58017578 5.70878906 5.34394531 6.48242188 6.13085938 C7.25134766 6.93330078 8.02027344 7.73574219 8.8125 8.5625 C9.60076172 9.36880859 10.38902344 10.17511719 11.20117188 11.00585938 C13.14342916 12.99520169 15.07573661 14.99327271 17 17 C16.67 17.66 16.34 18.32 16 19 C12.62537285 18.45276317 10.91765 17.9451 8 16 C4.34053245 16.65834829 1.13586752 18.01140108 -2 20 C-3.53045985 23.55892288 -3.53045985 23.55892288 -4 27 C-4.99 27.33 -5.98 27.66 -7 28 C-7 18.76 -7 9.52 -7 0 C-4.23614502 -1.38192749 -2.928697 -0.88931558 0 0 Z " fill="#20332D" transform="translate(348,433)"/>
<path d="M0 0 C2.475 0.495 2.475 0.495 5 1 C5 9.91 5 18.82 5 28 C3.68 27.67 2.36 27.34 1 27 C0.67 25.02 0.34 23.04 0 21 C-3.63 19.68 -7.26 18.36 -11 17 C-11.99 17.99 -12.98 18.98 -14 20 C-16.6875 19.6875 -16.6875 19.6875 -19 19 C-15.14377235 14.15217095 -10.89907922 9.78643069 -6.4375 5.5 C-5.60665894 4.67097168 -5.60665894 4.67097168 -4.7590332 3.82519531 C-3.12109375 2.28125 -3.12109375 2.28125 0 0 Z " fill="#1D302A" transform="translate(191,432)"/>
<path d="M0 0 C1.32 0 2.64 0 4 0 C3.56459142 1.33401777 3.12652414 2.66716774 2.6875 4 C2.28144531 5.23943359 2.28144531 5.23943359 1.8671875 6.50390625 C1.10342982 8.70228984 0.23003425 10.80095596 -0.6875 12.9375 C-2.48240042 17.56497763 -2.27073676 22.10668373 -2 27 C-3.32 27 -4.64 27 -6 27 C-6.12375 25.783125 -6.2475 24.56625 -6.375 23.3125 C-7.71028533 16.95977887 -11.85351248 12.60088759 -15.8828125 7.72265625 C-18 5 -18 5 -18 3 C-15.13144287 3.08436933 -13.44317685 3.58692181 -11.33203125 5.5546875 C-7 10.51440024 -7 10.51440024 -7 13 C-6.34 13 -5.68 13 -5 13 C-4.80664062 12.31292969 -4.61328125 11.62585938 -4.4140625 10.91796875 C-4.15367187 10.01691406 -3.89328125 9.11585938 -3.625 8.1875 C-3.24214844 6.84751953 -3.24214844 6.84751953 -2.8515625 5.48046875 C-2 3 -2 3 0 0 Z " fill="#21342E" transform="translate(302,444)"/>
<path d="M0 0 C4.88424492 -0.28730852 8.21669117 -0.32472595 12 3 C12.4375 5.5625 12.4375 5.5625 12 8 C10 10 10 10 7.3984375 10.1953125 C6.40070313 10.17210937 5.40296875 10.14890625 4.375 10.125 C2.87066406 10.09792969 2.87066406 10.09792969 1.3359375 10.0703125 C0.56507813 10.04710937 -0.20578125 10.02390625 -1 10 C-0.67 6.7 -0.34 3.4 0 0 Z " fill="#F2F2ED" transform="translate(238,449)"/>
<path d="M0 0 C6.875 5.625 6.875 5.625 8 9 C5.36 9.99 2.72 10.98 0 12 C0 8.04 0 4.08 0 0 Z " fill="#F3F3EE" transform="translate(345,437)"/>
<path d="M0 0 C0 3.63 0 7.26 0 11 C-5.75 10.125 -5.75 10.125 -8 9 C-6.78641212 6.02119338 -3.58154637 0 0 0 Z " fill="#F5F5F0" transform="translate(192,437)"/>
</svg>
